<svg xmlns="http://www.w3.org/2000/svg" width="56.932" height="50.564" viewBox="0 0 56.932 50.564">
  <path id="code" d="M36.9,4.021,25.514,48.263a2.829,2.829,0,0,1-3.523,2.173,3.232,3.232,0,0,1-1.957-3.911L31.421,2.285A2.824,2.824,0,0,1,34.944.115,3.226,3.226,0,0,1,36.9,4.021Zm9.234,7.96L56.1,23.042a3.4,3.4,0,0,1,0,4.464l-9.964,11.06a2.646,2.646,0,0,1-4.021,0,3.4,3.4,0,0,1,0-4.464l7.944-8.828-7.944-8.828a3.4,3.4,0,0,1,0-4.464,2.646,2.646,0,0,1,4.021,0ZM14.821,16.445,6.872,25.273,14.821,34.1a3.4,3.4,0,0,1,0,4.464,2.646,2.646,0,0,1-4.021,0L.834,27.505a3.4,3.4,0,0,1,0-4.464L10.8,11.981a2.646,2.646,0,0,1,4.021,0,3.4,3.4,0,0,1,0,4.464Z" transform="translate(0 0.008)" fill="#00e472"/>
</svg>
