<svg xmlns="http://www.w3.org/2000/svg" width="50.002" height="50" viewBox="0 0 50.002 50">
  <path id="pen" d="M48.169,4.7a6.261,6.261,0,0,1,0,8.853l-5.514,5.514L31.51,7.918,37.024,2.4a6.267,6.267,0,0,1,8.857,0ZM4.389,35.046,29.3,10.13,40.446,21.271l-24.92,24.91a5.547,5.547,0,0,1-2.366,1.4l-10.169,2.9a2.218,2.218,0,0,1-2.3-.684,2.151,2.151,0,0,1-.6-2.219L3,37.412A5.42,5.42,0,0,1,4.389,35.046ZM24.383,10.625,10.109,24.9,1.564,16.344a4.688,4.688,0,0,1,0-6.632L9.2,2.08a4.688,4.688,0,0,1,6.632,0l1.936,1.932c-.029.028-.068.059-.1.091l-6.257,6.258a1.562,1.562,0,0,0,2.209,2.209l6.257-6.256c.029-.031-.02-.065.088-.1ZM44.356,30.608a.794.794,0,0,0-.1.088L38,36.953a1.562,1.562,0,0,0,2.209,2.209l6.257-6.257c.029-.117-.02-.068.088-.1l1.936,1.936a4.691,4.691,0,0,1,0,6.628l-7.635,7.635a4.691,4.691,0,0,1-6.628,0l-8.554-8.545L39.947,26.189Z" transform="translate(0 -0.572)" fill="#00e472"/>
</svg>
