<svg xmlns="http://www.w3.org/2000/svg" width="24" height="24" viewBox="0 0 24 24">
  <g id="adobe-premierepro" transform="translate(-0.269)">
    <path id="Subtraction_13" data-name="Subtraction 13" d="M20.251,24H3.749a3.731,3.731,0,0,1-2.1-.641A3.764,3.764,0,0,1,.295,21.71,3.721,3.721,0,0,1,0,20.251V3.749a3.731,3.731,0,0,1,.641-2.1A3.763,3.763,0,0,1,2.29.295,3.719,3.719,0,0,1,3.749,0h16.5A3.719,3.719,0,0,1,21.71.295,3.747,3.747,0,0,1,24,3.749v16.5a3.73,3.73,0,0,1-.641,2.1,3.763,3.763,0,0,1-1.65,1.359A3.72,3.72,0,0,1,20.251,24ZM5.746,6.744c-.042,0-.086.04-.086.13V16.987a.285.285,0,0,0,.056.159c.01.017.022.038.035.062H7.584a.114.114,0,0,0,.1-.129V13.949a3.425,3.425,0,0,1,.479.058h0a1.888,1.888,0,0,0,.2.028h.508a6.516,6.516,0,0,0,2.19-.384,3.134,3.134,0,0,0,1.584-1.2,3.43,3.43,0,0,0,.6-2.1,4.522,4.522,0,0,0-.216-1.286,3.309,3.309,0,0,0-2.059-1.93,6.262,6.262,0,0,0-1.928-.3H8.957a4.114,4.114,0,0,1-.488-.043h0a4.184,4.184,0,0,0-.5-.043Zm8.871,2.573c-.043,0-.087,0-.087.038-.043.043-.043.043-.043.086a3.208,3.208,0,0,0,.021.32h0a3.206,3.206,0,0,1,.022.322,5.2,5.2,0,0,1,.043.773v6.216c.041.082.083.129.173.129H16.58a.114.114,0,0,0,.075-.045.113.113,0,0,0,.021-.085V12.062a2,2,0,0,1,.643-.384,2.488,2.488,0,0,1,.816-.259,2.217,2.217,0,0,1,.67-.1,2.266,2.266,0,0,1,.271.016c.123,0,.173-.038.173-.129V9.231c0-.042-.04-.086-.129-.086-.059,0-.119-.007-.177-.007a2.225,2.225,0,0,0-1.2.348,3.562,3.562,0,0,0-1.071.859V10a.78.78,0,0,0-.043-.3.286.286,0,0,0-.052-.155c-.011-.02-.023-.039-.034-.062a.284.284,0,0,0-.216-.173Zm-5.662,2.7H8.362a2.683,2.683,0,0,1-.322-.043h0a2.67,2.67,0,0,0-.321-.043v-3.3a2.4,2.4,0,0,0,.479.048c.055,0,.11,0,.165-.006h.686a3.638,3.638,0,0,1,1.157.216,1.421,1.421,0,0,1,.686.557,1.919,1.919,0,0,1,.216.859,1.432,1.432,0,0,1-.054.54,1.488,1.488,0,0,1-.248.486,1.645,1.645,0,0,1-.816.514A3.14,3.14,0,0,1,8.955,12.02Z" transform="translate(0.269)" fill="#ababab"/>
  </g>
</svg>
