<svg id="adobe-xd" xmlns="http://www.w3.org/2000/svg" width="24.616" height="24" viewBox="0 0 24.616 24">
  <path id="Subtraction_11" data-name="Subtraction 11" d="M20.257,24H4.359A4.353,4.353,0,0,1,0,19.642V4.359A4.354,4.354,0,0,1,4.359,0h15.9a4.353,4.353,0,0,1,4.359,4.359V19.642A4.353,4.353,0,0,1,20.257,24Zm-2.1-15.415a5.213,5.213,0,0,0-2.6.595,4.206,4.206,0,0,0-2.195,3.754,4.465,4.465,0,0,0,.564,2.339,3.563,3.563,0,0,0,1.549,1.395,5.111,5.111,0,0,0,2.133.462h.072a8.969,8.969,0,0,0,1.58-.143,7.863,7.863,0,0,0,1.672-.492.168.168,0,0,0,.1-.164l0-.057c-.009-.162-.019-.346-.038-.538l0-.089c-.008-.188-.016-.367-.016-.527V5.333a.1.1,0,0,0-.087-.073l-.016,0H18.79c-.069,0-.1.037-.1.113V8.616c-.054,0-.1-.007-.152-.009h-.008c-.056,0-.109-.005-.159-.011A1.792,1.792,0,0,0,18.154,8.585ZM3.775,6.154a.12.12,0,0,0-.1.041c-.02.019-.012.06.021.1L6.8,11.559,3.61,16.79a.143.143,0,0,0-.02.113c0,.029.01.035.025.035h.019l.028,0H5.918c.108,0,.194-.008.236-.112.152-.272.307-.557.457-.833l.011-.021.035-.064.2-.375c.2-.377.407-.77.61-1.149l.017-.032.071-.132c.252-.471.478-.9.687-1.323h.021c.246.45.5.906.724,1.308l.014.025c.2.359.461.83.7,1.292.1.209.214.42.319.623l.01.02c.1.2.217.419.327.639.073.1.191.113.349.113h2.348l.029,0,.029,0h.024a.026.026,0,0,0,.031-.022.174.174,0,0,0-.021-.123L9.867,11.385l3.077-5.077c.021-.021.041-.062.031-.072a.093.093,0,0,0-.094-.074l-.019,0H10.7a.2.2,0,0,0-.134.021.18.18,0,0,0-.061.1c-.091.17-.184.346-.274.518l-.009.018c-.131.248-.265.5-.4.757-.242.441-.477.871-.7,1.293-.268.51-.479.93-.667,1.323h-.02c-.227-.465-.452-.891-.687-1.3-.208-.349-.4-.692-.6-1.054l0-.006-.033-.059-.1-.184c-.286-.534-.488-.942-.657-1.323a.294.294,0,0,0-.1-.092.587.587,0,0,0-.144-.02Zm14.113,8.994a2.677,2.677,0,0,1-.851-.133,1.759,1.759,0,0,1-.7-.41,2,2,0,0,1-.462-.728,2.846,2.846,0,0,1-.175-1.056,2.116,2.116,0,0,1,1.211-2.062,2.506,2.506,0,0,1,1.159-.267c.105,0,.213.009.317.018h0l.019,0a2.631,2.631,0,0,1,.266.049l.01,0v4.513a.927.927,0,0,1-.3.054l-.067,0C18.193,15.138,18.046,15.149,17.887,15.149Z" transform="translate(0)" fill="#ababab"/>
</svg>
