<svg xmlns="http://www.w3.org/2000/svg" width="239.999" height="234" viewBox="0 0 239.999 234">
  <g id="adobe-after-effects" transform="translate(0 0)">
    <path id="Subtraction_15" data-name="Subtraction 15" d="M2392.5-921h-155a42.311,42.311,0,0,1-16.555-3.336,42.3,42.3,0,0,1-13.508-9.1,42.3,42.3,0,0,1-9.1-13.508A42.309,42.309,0,0,1,2195-963.5v-149a42.307,42.307,0,0,1,3.336-16.555,42.3,42.3,0,0,1,9.1-13.508,42.3,42.3,0,0,1,13.508-9.1A42.311,42.311,0,0,1,2237.5-1155h155a42.311,42.311,0,0,1,16.555,3.336,42.3,42.3,0,0,1,13.508,9.1,42.3,42.3,0,0,1,9.1,13.508A42.307,42.307,0,0,1,2435-1112.5v149a42.309,42.309,0,0,1-3.336,16.555,42.3,42.3,0,0,1-9.1,13.508,42.3,42.3,0,0,1-13.508,9.1A42.311,42.311,0,0,1,2392.5-921Zm-24.879-149.907c-.244,0-.487,0-.721.007-7.072,0-12.379.985-16.7,3.1a36.151,36.151,0,0,0-12.1,9.5,40.881,40.881,0,0,0-7.5,13.7,51.052,51.052,0,0,0-2.5,15.9,51.124,51.124,0,0,0,2.1,14.6,36.763,36.763,0,0,0,6.9,13.1,33.783,33.783,0,0,0,12.6,9.5c5.25,2.322,11.709,3.5,19.2,3.5.49.01.973.015,1.437.015A67.1,67.1,0,0,0,2383.1-989.2a42.627,42.627,0,0,0,10-3,2.364,2.364,0,0,0,.7-.7,5.046,5.046,0,0,0,.2-1.2v-15.3c0-.659-.131-.993-.388-.993a.721.721,0,0,0-.412.194,37.486,37.486,0,0,1-8.9,2.3,59.954,59.954,0,0,1-10.4,1.1c-.221,0-.444.008-.663.008a31.332,31.332,0,0,1-12.137-2.507,15.872,15.872,0,0,1-7.3-6,22.082,22.082,0,0,1-3.1-8.9h31.7c1.338,0,2.625.106,3.869.209h.007c1.188.1,2.309.19,3.423.19a47.309,47.309,0,0,0,5.8-.3c.551-.034,1.041-.069,1.474-.1l.023,0H2397c.817-.057,1.407-.1,1.795-.1a1.486,1.486,0,0,0,1.4-1.3c.043-.391.087-.885.138-1.457l0-.04c.065-.729.145-1.637.258-2.7.1-1.932.2-4.018.2-6.4a39.4,39.4,0,0,0-1.9-12.2,36.657,36.657,0,0,0-6-11.4,27.367,27.367,0,0,0-10.5-8A35.818,35.818,0,0,0,2367.621-1070.907ZM2254.2-1015h37.2l8.2,24a1.525,1.525,0,0,0,1.42,1.112,1.213,1.213,0,0,0,.18-.013h20.9a1.127,1.127,0,0,0,.95-.333,1.465,1.465,0,0,0,.05-1.267L2286.6-1094c-.1-.493-.6-.8-1.3-.8h-25.9a1.054,1.054,0,0,0-.625.4.873.873,0,0,0-.175.7,34.869,34.869,0,0,1-.6,6.5c-.372,1.113-.692,2.072-1,3.1l-32.2,92.3a1.679,1.679,0,0,0,.083,1.436,1.211,1.211,0,0,0,1.016.364h18.8a1.788,1.788,0,0,0,.195.011,1.758,1.758,0,0,0,1.705-1.411l7.6-23.6Zm31.2-19.9H2260c1.435-4.016,3.08-8.82,4.4-14,.992-3.1,1.947-6.205,2.87-9.208l.05-.162c.551-1.792,1.122-3.646,1.679-5.431a122.184,122.184,0,0,0,3.4-12.9h.2c.4,1.358.8,2.8,1.187,4.2l0,.011c.323,1.158.657,2.356,1.01,3.592.7,2.558,1.512,5.219,2.7,8.9.506,1.568,1.008,3.18,1.451,4.6l.022.072c.46,1.476.935,3,1.427,4.527,1.01,3.366,1.893,6.179,2.7,8.6.911,2.633,1.706,5.122,2.3,7.2Zm86.4-3.9h-21.1a20.58,20.58,0,0,1,2.2-7.2,14.077,14.077,0,0,1,12.521-7.621c.271,0,.533.007.779.021.148-.005.3-.008.444-.008a13.032,13.032,0,0,1,7.765,2.557,13.224,13.224,0,0,1,4.791,6.651,11.5,11.5,0,0,1,.6,3.7v1a4.794,4.794,0,0,1-2.3.8C2376.3-1038.8,2374.412-1038.8,2371.8-1038.8Z" transform="translate(-2195 1155)" fill="#00005b"/>
  </g>
</svg>
