<svg xmlns="http://www.w3.org/2000/svg" width="24.615" height="24" viewBox="0 0 24.615 24">
  <g id="adobe-illustrator" transform="translate(0)">
    <path id="Subtraction_14" data-name="Subtraction 14" d="M20.256,24H4.359A4.353,4.353,0,0,1,0,19.641V4.359A4.353,4.353,0,0,1,4.359,0h15.9a4.352,4.352,0,0,1,4.359,4.359V19.641A4.353,4.353,0,0,1,20.256,24ZM16.421,8.759c-.093,0-.133.043-.133.144v7.9a.144.144,0,0,0,.154.164h2.01c.092,0,.133-.051.133-.164V8.9c0-.1-.045-.144-.133-.144Zm-8.339,5.6H11.9l.841,2.441a.157.157,0,0,0,.145.114h2.162a.116.116,0,0,0,.1-.034.15.15,0,0,0,.005-.13L11.405,6.185c-.011-.054-.056-.082-.133-.082H8.616a.106.106,0,0,0-.067.045.09.09,0,0,0-.015.067,3.574,3.574,0,0,1-.062.667c-.029.088-.053.171-.075.245l0,.012-.024.082-3.3,9.507a.173.173,0,0,0,.009.148.125.125,0,0,0,.1.037H7.128a.181.181,0,0,0,.175-.145l.779-2.41ZM17.436,7.9h0l.07,0a1.2,1.2,0,0,0,.864-.361,1.3,1.3,0,0,0,.359-.943,1.306,1.306,0,0,0-.339-.913,1.236,1.236,0,0,0-.933-.359,1.309,1.309,0,0,0-.913.359,1.2,1.2,0,0,0-.37.913,1.328,1.328,0,0,0,.349.943,1.263,1.263,0,0,0,.876.36Zm-6.154,4.379H8.677c.163-.455.315-.938.451-1.436.1-.323.2-.648.3-.963v0l0-.006c.055-.18.112-.365.168-.544A12.52,12.52,0,0,0,9.949,8h.02c.042.143.083.291.127.448l.012.043c.028.1.057.2.087.309.089.324.19.643.277.913.055.171.11.348.155.49s.095.3.143.454c.1.345.194.633.277.882.1.279.177.534.236.738Z" transform="translate(0)" fill="#ababab"/>
  </g>
</svg>
