<svg xmlns="http://www.w3.org/2000/svg" width="24.616" height="24" viewBox="0 0 24.616 24">
  <g id="adobe-photoshop" transform="translate(0)">
    <path id="Subtraction_12" data-name="Subtraction 12" d="M20.257,24H4.359A4.352,4.352,0,0,1,0,19.641V4.359A4.354,4.354,0,0,1,4.359,0h15.9a4.353,4.353,0,0,1,4.359,4.359V19.641A4.353,4.353,0,0,1,20.257,24Zm-5.79-9.365a.062.062,0,0,0-.035.011.111.111,0,0,0-.041.092v1.785a.2.2,0,0,0,.113.2,4.148,4.148,0,0,0,1.046.328,7.026,7.026,0,0,0,1.395.133,4.733,4.733,0,0,0,1.856-.328,2.563,2.563,0,0,0,1.149-.913,2.39,2.39,0,0,0,.4-1.364,2.2,2.2,0,0,0-.236-1.056,2.369,2.369,0,0,0-.81-.852,7.4,7.4,0,0,0-1.58-.749c-.262-.109-.507-.223-.728-.338a1.149,1.149,0,0,1-.349-.277.455.455,0,0,1-.1-.267.547.547,0,0,1,.082-.277.529.529,0,0,1,.318-.205,2.128,2.128,0,0,1,.533-.074l.082,0a5.411,5.411,0,0,1,1.149.133,3.619,3.619,0,0,1,.984.349.157.157,0,0,0,.073.015.517.517,0,0,0,.112-.015.126.126,0,0,0,.051-.1V9.19a.492.492,0,0,0-.019-.116l0-.007a.182.182,0,0,0-.1-.093,3.639,3.639,0,0,0-.882-.236,8.819,8.819,0,0,0-1.272-.092,3.955,3.955,0,0,0-1.815.359,2.513,2.513,0,0,0-1.077.944,2.4,2.4,0,0,0-.349,1.241,2.209,2.209,0,0,0,.236,1.046,2.68,2.68,0,0,0,.78.872,6.228,6.228,0,0,0,1.457.739,4.213,4.213,0,0,1,1,.482.542.542,0,0,1,.246.41.475.475,0,0,1-.277.431,1.98,1.98,0,0,1-.851.143,4.778,4.778,0,0,1-1.211-.154,4.4,4.4,0,0,1-1.272-.5A.1.1,0,0,0,14.466,14.635ZM8.821,6.1c-.3,0-.615,0-.934.01-.142,0-.28.007-.413.009H7.451c-.159,0-.31.006-.457.011s-.26.008-.384.01H6.589c-.13,0-.252.005-.373.01-.236.011-.4.011-.574.011-.069,0-.1.037-.1.112V16.831c0,.091.039.133.123.133h1.99a.134.134,0,0,0,.089-.051.124.124,0,0,0,.023-.092V13.528h.008c.193,0,.332,0,.433.011s.266.01.513.01a6.566,6.566,0,0,0,2.308-.348,3.508,3.508,0,0,0,1.651-1.251,3.682,3.682,0,0,0,.615-2.185,3.911,3.911,0,0,0-.236-1.334,3.282,3.282,0,0,0-.749-1.169,3.666,3.666,0,0,0-1.374-.841A6,6,0,0,0,8.821,6.1Zm-.1,5.508H8.175c-.117,0-.244-.009-.379-.019H7.775V8.144a1.813,1.813,0,0,1,.257-.015c.06,0,.114,0,.163,0,.195-.01.428-.01.7-.01h.09a2.977,2.977,0,0,1,1.12.206,1.488,1.488,0,0,1,.718.585,1.687,1.687,0,0,1,.236.913,1.58,1.58,0,0,1-.318,1.056,1.764,1.764,0,0,1-.841.543A3.81,3.81,0,0,1,8.718,11.61Z" transform="translate(0)" fill="#ababab"/>
  </g>
</svg>
