<svg xmlns="http://www.w3.org/2000/svg" width="27.427" height="24" viewBox="0 0 27.427 24">
  <path id="react" d="M22.4,10.028q-.434-.145-.868-.273c.048-.2.091-.4.134-.595.659-3.193.225-5.759-1.237-6.605-1.409-.809-3.707.032-6.032,2.057-.23.2-.455.407-.67.616-.145-.139-.295-.279-.445-.412C10.848,2.652,8.4,1.741,6.942,2.593c-1.4.814-1.821,3.23-1.232,6.251.059.3.123.595.2.895-.343.1-.68.2-1,.316C2.052,11.046,0,12.61,0,14.228c0,1.671,2.186,3.348,5.159,4.366.241.08.482.161.729.23-.08.321-.15.637-.214.964-.562,2.973-.123,5.33,1.28,6.139,1.446.836,3.878-.021,6.246-2.095.187-.166.375-.337.562-.52.236.23.482.45.729.664,2.293,1.971,4.559,2.769,5.957,1.961,1.446-.836,1.918-3.369,1.307-6.455q-.072-.354-.161-.723c.171-.048.337-.1.5-.155,3.091-1.023,5.33-2.678,5.33-4.377,0-1.623-2.111-3.2-5.025-4.2ZM15.155,5.48c1.993-1.736,3.852-2.416,4.7-1.928.905.52,1.254,2.62.686,5.378-.037.182-.075.359-.123.536A27.423,27.423,0,0,0,16.81,8.9a27.065,27.065,0,0,0-2.282-2.844c.209-.2.412-.386.627-.573Zm-6.2,11.528c.273.466.552.932.846,1.387a24.257,24.257,0,0,1-2.486-.4,25.024,25.024,0,0,1,.873-2.384c.246.471.5.937.766,1.4ZM7.334,10.564c.771-.171,1.591-.311,2.443-.418-.284.445-.562.9-.825,1.361s-.52.921-.761,1.393c-.337-.8-.621-1.58-.857-2.336ZM8.8,14.255c.354-.739.739-1.462,1.146-2.175s.846-1.4,1.307-2.084c.8-.059,1.623-.091,2.459-.091s1.661.032,2.459.091q.683,1.012,1.3,2.073t1.162,2.164q-.538,1.109-1.157,2.186c-.407.712-.841,1.4-1.3,2.089-.8.059-1.628.086-2.47.086s-1.655-.027-2.443-.075q-.7-1.02-1.318-2.089c-.412-.712-.793-1.436-1.152-2.175ZM18.476,17c.273-.471.53-.948.782-1.43a24.867,24.867,0,0,1,.905,2.373,23.529,23.529,0,0,1-2.518.429C17.935,17.919,18.208,17.458,18.476,17Zm.771-4.1c-.252-.471-.509-.943-.777-1.4s-.536-.905-.82-1.35a24.651,24.651,0,0,1,2.459.429A23.707,23.707,0,0,1,19.247,12.9ZM13.724,6.873A23.523,23.523,0,0,1,15.31,8.791c-1.061-.048-2.127-.048-3.187,0C12.648,8.1,13.189,7.457,13.724,6.873ZM7.51,3.589c.9-.525,2.9.225,5,2.089.134.118.268.246.407.375a27.216,27.216,0,0,0-2.3,2.844,28.238,28.238,0,0,0-3.6.557c-.07-.273-.129-.552-.187-.83-.5-2.593-.171-4.548.675-5.035ZM6.2,17.71c-.225-.064-.445-.134-.664-.209A10.926,10.926,0,0,1,2.159,15.83a2.4,2.4,0,0,1-1.007-1.6c0-.98,1.693-2.234,4.135-3.086.305-.107.616-.2.927-.295a28.485,28.485,0,0,0,1.312,3.407A29.282,29.282,0,0,0,6.2,17.71Zm6.246,5.25a9.8,9.8,0,0,1-3.021,1.891,2.371,2.371,0,0,1-1.891.07c-.852-.493-1.205-2.384-.723-4.928.059-.3.123-.6.2-.895a26.8,26.8,0,0,0,3.637.525,28.27,28.27,0,0,0,2.314,2.861C12.787,22.649,12.615,22.81,12.444,22.96Zm1.312-1.3c-.546-.589-1.093-1.243-1.623-1.945.514.021,1.045.032,1.58.032.552,0,1.093-.011,1.628-.037a23.1,23.1,0,0,1-1.586,1.95Zm7,1.607a2.381,2.381,0,0,1-.884,1.677c-.852.493-2.668-.15-4.628-1.832-.225-.193-.45-.4-.68-.616a26.5,26.5,0,0,0,2.261-2.871,26.407,26.407,0,0,0,3.653-.562c.054.22.1.439.145.654A9.765,9.765,0,0,1,20.758,23.265Zm.975-5.759c-.15.048-.3.1-.455.139a27.213,27.213,0,0,0-1.366-3.418,27.077,27.077,0,0,0,1.312-3.369c.279.08.546.166.8.252,2.5.857,4.248,2.132,4.248,3.107,0,1.05-1.87,2.405-4.543,3.289Zm-8.019-.8A2.453,2.453,0,1,0,11.26,14.25,2.453,2.453,0,0,0,13.714,16.7Z" transform="translate(0 -2.251)" fill="#ababab"/>
</svg>
